<?xml version="1.0" ?>
<svg width="100" height="40" xmlns="http://www.w3.org/2000/svg">
<g fill="none" stroke="black">
	<path stroke-width="2" d="
		M0,13 h25 l10,10
		M33,26 l6,-6
		M36,30 l6,-6
		M39,27 l11,11 l11,-11
		M64,30 l-6,-6
		M67,26 l-6,-6
		M100,13 h-25 l-10,10
		M2,28 l6,6 h20
		M98,28 l-6,6 h-20" />
	<path stroke-width="4" d="
		M0,20 h25 l18,18 h-12 l-10,-10 h-21
		M50,31 l-17,-17 h10 l-4,-6 h7 l-1,-6 h10 l-1,6 h7 l-4,6 h10 z
		M100,20 h-25 l-18,18 h12 l10,-10 h21" />
	<line stroke-width="1" x1="42" y1="14" x2="50" y2="32" />
	<line stroke-width="1" x1="58" y1="14" x2="50" y2="32" />
</g>
<circle cx="50" cy="37" r="3" />
<path d="M43,0 l7,32 l7,-32" />
</svg>