<svg xmlns="http://www.w3.org/2000/svg" width="32" height="32">
	<circle stroke="black" stroke-width="2" fill="none" cx="16" cy="16" r="15" />
	<path d="M25.5,7.113 c-0.045,0.09 -0.157,0.168 -0.28,0.168 -0.235,0 -0.471,0.673 -0.37,1.076 0.078,0.314 -0.359,2.051 -0.706,2.814 -0.28,0.594 -0.448,0.785 -0.336,0.37 a.36,0.36 0 0 0 -0.09,-0.336 c-0.078,-0.067 -0.168,-0.258 -0.213,-0.426 -0.101,-0.46 -0.224,-0.594 -0.661,-0.695 -0.482,-0.101 -1.043,0.179 -1.143,0.583 -0.123,0.493 0.112,1.424 0.392,1.603 0.202,0.123 0,0.28 -0.381,0.28 -0.303,0 -0.504,0.123 -0.986,0.583 -0.336,0.325 -0.964,0.796 -1.39,1.031 l-2.309,1.188 c-0.112,0 -0.202,0.045 -0.202,0.112 0,0.056 -0.112,0.112 -0.235,0.112 -0.202,0 -0.213,-0.022 -0.101,-0.168 0.078,-0.09 0.09,-0.168 0.034,-0.168 -0.146,0 -0.594,0.493 -0.594,0.65 0,0.235 -1.188,0.695 -1.805,0.695 -0.28,0 -1.076,-0.46 -1.244,-0.717 -0.258,-0.381 -0.448,-1.323 -0.381,-1.805 0.045,-0.28 0.123,-0.482 0.168,-0.46 0.045,0.034 0.146,0 0.235,-0.056 0.146,-0.09 0.135,-0.135 -0.045,-0.269 -0.123,-0.09 -0.291,-0.168 -0.37,-0.168 s-.191,-0.202 -0.258,-0.437 c-0.101,-0.392 -0.168,-0.448 -0.538,-0.516 -0.561,-0.09 -1.233,0.191 -1.323,0.56 -0.034,0.157 -0.135,0.28 -0.224,0.28 -0.179,0 -0.213,0.404 -0.045,0.504 0.067,0.034 0.112,0.224 0.112,0.415 0,0.381 0.112,0.37 -1.368,0.135 -0.37,-0.056 -0.437,-0.034 -0.549,0.213 -0.09,0.191 -0.258,0.314 -0.482,0.37 -0.191,0.034 -0.617,0.191 -0.942,0.336 s-.65,0.269 -0.717,0.269 c-0.078,0 -0.594,0.224 -1.155,0.493 -0.549,0.269 -1.188,0.527 -1.401,0.572 -0.628,0.123 -0.785,0.179 -0.785,0.28 0,0.045 0.112,0.067 0.235,0.034 0.202,-0.056 0.224,-0.034 0.168,0.157 -0.123,0.392 0.213,0.415 1.054,0.067 0.09,-0.034 0.28,-0.056 0.404,-0.045 0.135,0.011 0.46,-0.067 0.729,-0.191 0.841,-0.37 1.379,-0.572 1.558,-0.572 a4.22,4.22 0 0 0 0.583,-0.078 c0.258,-0.045 0.426,-0.034 0.426,0.034 0,0.056 -0.213,0.426 -0.471,0.818 -0.527,0.785 -0.594,1.199 -0.348,2.298 0.146,0.628 0.46,0.953 0.953,0.953 0.291,0 0.325,0.034 0.258,0.247 -0.123,0.381 -0.179,0.415 -0.785,0.482 -1.188,0.123 -1.39,0.179 -1.569,0.46 -0.168,0.258 -0.157,0.291 0.101,0.549 0.146,0.146 0.314,0.392 0.359,0.527 0.101,0.325 0.247,0.426 0.639,0.426 0.359,0 0.504,-0.258 0.303,-0.504 -0.123,-0.146 0.011,-0.168 1.043,-0.168 0.673,0 1.222,-0.045 1.256,-0.112 0.146,-0.224 0.258,-0.101 0.336,0.359 0.045,0.269 0.135,0.583 0.191,0.695 0.067,0.123 0.112,0.561 0.112,0.975 -0.011,0.83 0.045,0.908 0.583,0.953 a5.64,5.64 0 0 1 0.65,0.101 c0.168,0.045 0.538,0.045 0.818,0.011 0.706,-0.112 0.673,-0.381 -0.078,-0.751 l-.583,-0.28 -0.045,-1.009 c-0.022,-0.549 -0.135,-1.525 -0.247,-2.175 -0.179,-1.02 -0.247,-1.199 -0.516,-1.424 -0.303,-0.235 -0.303,-0.247 -0.168,-0.874 0.112,-0.504 0.258,-0.751 0.729,-1.256 l.583,-0.628 0.549,0.392 c0.942,0.673 0.975,0.684 1.906,0.527 0.684,-0.123 0.841,-0.179 0.841,-0.348 0,-0.112 0.067,-0.202 0.146,-0.202 s.224,-0.101 0.336,-0.224 c0.101,-0.123 0.269,-0.224 0.37,-0.224 0.247,0 0.818,-0.359 1.345,-0.841 0.235,-0.213 0.538,-0.392 0.684,-0.392 0.269,0 1.401,-0.504 2.018,-0.908 0.202,-0.123 0.415,-0.202 0.482,-0.157 0.202,0.123 0.112,0.773 -0.235,1.625 -0.572,1.424 -0.807,1.693 -1.962,2.343 l-1.031,0.594 0.101,0.348 c0.135,0.46 0.235,0.549 1.132,0.919 0.818,0.336 0.863,0.404 0.93,1.312l.112,1.446 c0.078,0.796 0.067,0.863 -0.179,1.099 -0.146,0.135 -0.392,0.269 -0.549,0.303 -0.471,0.101 -0.56,0.146 -0.56,0.258 0,0.191 0.325,0.224 1.289,0.157 l.964,-0.067 -0.078,-0.572 c-0.056,-0.314 -0.09,-0.695 -0.078,-0.852 l.045,-1.356 0.022,-1.087 0.336,0.101 0.359,0.123 c0.123,0.157 0.28,0.572 0.28,0.751 0,0.135 0.067,0.235 0.157,0.235 0.202,0 0.336,-0.37 0.348,-0.897 0,-0.213 0.045,-0.504 0.09,-0.65 0.067,-0.191 0.056,-0.247 -0.078,-0.247 -0.101,0 -0.179,-0.056 -0.179,-0.123 0,-0.078 0.067,-0.09 0.202,-0.034 0.303,0.146 1.278,0.078 1.648,-0.112 0.191,-0.101 0.404,-0.179 0.482,-0.179 0.067,0 0.135,-0.078 0.135,-0.168 0,-0.191 -0.437,-0.392 -0.841,-0.392s-.628,-0.437 -0.807,-1.536 c-0.168,-1.099 -0.123,-2.096 0.112,-2.365 0.09,-0.112 0.336,-0.516 0.549,-0.919l.572,-1.02 c0.325,-0.493 1.087,-2.802 1.256,-3.778 0.078,-0.516 0.258,-1.132 0.381,-1.379 0.202,-0.392 0.213,-0.471 0.078,-0.605 -0.09,-0.09 -0.135,-0.269 -0.101,-0.392 0.067,-0.258 -0.056,-0.303 -0.146,-0.056 z m-4.024,13.06 c-0.247,0.045 -0.527,0.045 -0.617,-0.011 -0.112,-0.056 0.056,-0.09 0.448,-0.09 0.617,0.011 0.617,0.011 0.168,0.101z"/>
</svg>