<?xml version="1.0" ?>
<svg width="256" height="256" xmlns="http://www.w3.org/2000/svg">
	<ellipse fill="black" cx="128" cy="205" rx="128" ry="51" />
	<ellipse fill="white" cx="129" cy="205" rx="112" ry="46.5" />
	<ellipse fill="black" cx="123.5" cy="204" rx="113.5" ry="49.5" />
	<ellipse fill="white" cx="123" cy="204" rx="104" ry="45" />
	<ellipse fill="black" cx="128.5" cy="204" rx="101" ry="46" />
	<ellipse fill="white" cx="131" cy="204.5" rx="80" ry="42" />
	<ellipse fill="black" cx="135.5" cy="207" rx="78" ry="46" />
	<ellipse fill="white" cx="152" cy="205" rx="69.5" ry="41" />
	<ellipse fill="black" cx="146.5" cy="202.5" rx="67.5" ry="43" />
	<ellipse fill="white" cx="141.5" cy="204.5" rx="61.5" ry="33.5" />
	<ellipse fill="black" cx="147.5" cy="202.5" rx="60" ry="36" />
	<ellipse fill="white" cx="146" cy="200.5" rx="51.5" ry="31.5" />
	<ellipse fill="black" cx="141" cy="203.5" rx="51" ry="34" />
	<path fill="#0BCB31" d="M 155,152.5 c0,0 8.6,-2.5 12,-10.6 3.5,-8.1 1.5,-17.5 4.3,-21.8 2.8,-4.4 4.7,-7.1 4.7,-7.1 0,0 -23.5,-4.2 -35.5,-3 -12,1.2 -24.7,4.7 -24.7,4.7 0,0 -5,-5.5 -4.5,-9.9 0.5,-4.4 2.2,-9.9 2.2,-9.9 0,0 12.4,-0.6 16.2,0.6 3.8,1.2 9,4.7 13.2,4.3 4.1,-0.4 15.3,-1.7 18.7,-0.6 3.4,1 7.2,4.5 10.3,5 3.1,0.5 -0.2,-5.1 2.3,-5.4 2.5,-0.3 8.4,-0.8 3.7,-1.8 -4.8,-0.9 -20.7,-2.3 -23.9,-2.7 -3.2,-0.4 -14.1,-5.4 -18.3,-5.6 -4.2,-0.2 -14.4,-3.6 -19.8,-5.1 -5.4,-1.5 -14,-5 -14.5,-7 -0.5,-2 2.3,-5.1 3.6,-4.7 1.3,0.4 5.4,4.7 6.5,0.9 0.5,-1.7 1.9,-6.7 1.9,-6.7 l2,0.1 c0,0 -1.4,-1.8 -0.4,-4.1 0.9,-2.3 1.3,-3.4 1.3,-3.4 0,0 0.2,1.8 2.6,0 2.5,-1.8 4.6,-4.4 3.3,-6.7 -1.3,-2.3 -3.9,-2.6 -6,-2.5 -2.1,0.1 -1.4,1.2 -4.1,-1.3 -2.7,-2.4 -5,-3.4 -7.4,-3.4 -2.4,0 -5.1,0.2 -7.7,3 -2.6,2.8 -8.7,14.1 -8.7,14.1 0,0 0.3,-4.4 1.1,-11.5 0.8,-7.1 5,-24.3 5.5,-27.9 0.6,-3.6 0.7,-5.9 0.7,-5.9 0,0 0.6,-1.7 2,-2.7 1.4,-1 0.9,-2.6 3.2,-2.3 2.3,0.3 2.3,-1.5 0.4,-2.3 -1.5,-0.6 -6.7,4.1 -5.6,1.8 1.1,-2.3 4.5,-10.1 3.1,-9.3 -1.4,0.8 -4.7,7 -3.9,5.2 0.8,-1.9 2.7,-6.8 0.9,-7 -1.8,-0.2 -2.6,1.3 -4.1,3.3 -1.5,2.1 -0.9,4.1 -0.7,6.6 0.1,1.8 -0,2.1 0.3,6.5 0.2,3.3 -2.9,9.2 -4,15 -1.2,5.8 -0.8,14.6 -6.7,33.5 -0.9,2.9 -3.1,5 -2.7,8 0.4,3 -2.4,19.1 2.5,28.9 4.9,9.7 16.6,15.8 17.7,16.8 1.1,1 -1.8,9.3 2.1,17.2 3.9,7.8 11.4,16.1 18.7,20.9 7.3,4.8 5.8,6.9 5.8,6.9 l4.250988,-1.10222 c0,0 1.9,0.1 -0.3,2.5 -2.2,2.4 -11.1,3.6 -14.4,8 -3.3,4.4 -11.5,16.2 -14.3,18.1 -2.8,1.9 -7.4,5.3 -7.4,5.3 0,0 0,2.9 0.9,8.4 0.9,5.5 1.4,6.4 1.4,6.4 0,0 15,2.5 10.3,0.4 -4.8,-2.1 -4.1,-6.3 -4.9,-8.3 -0.8,-2 -2.6,-5 15.7,-18.7 18.4,-13.6 27.6,-18.2 27,-19.6 -0.6,-1.4 -2.8,-5.4 -2.8,-5.4 l1.8,-0.8 c0,0 2.2,3.3 4.5,4.8 2.2,1.5 5.4,4.1 5.6,7 0.2,2.9 4.1,14.6 10.6,19.5 6.5,5 26.7,19.8 28,23.4 1.3,3.6 -0.3,4.8 -0.3,4.8 0,0 20.7,3.1 19.3,1.7 -1.4,-1.4 -8.8,-5.3 -11.3,-6.9 -30.8,-27.1 -29.7,-41.9 -43.3,-60.7 z" />
</svg>