<svg xmlns="http://www.w3.org/2000/svg" width="32" height="32">
	<circle stroke="black" stroke-width="2" fill="none" cx="16" cy="16" r="15" />
	<path d="M14.5,4.745 c-0.103,0.134 -0.155,0.134 -0.217,0.031 -0.134,-0.206 -0.227,-0.021 -0.217,0.454 a10.5,10.5 0 0 1 -0.103,1.218 l-0.175,1.342 c-0.052,0.475 -0.093,0.557 -0.248,0.537 -0.382,-0.062 -0.888,0.196 -1.125,0.578 a4.26,4.26 0 0 0 -0.495,1.652 c0,0.134 -0.093,0.361 -0.196,0.495 -0.206,0.268 -0.217,0.836 -0.021,1.641 0.052.227,0.155.981,0.227 1.682 l0.134,1.27 -0.382,0.743 -0.95,1.724 c-0.124,0.196 -0.279,0.588 -0.361,0.867 -0.124,0.475 -0.124,0.526.114,0.95.134,0.258.32,0.454.413,0.454 s0.227,0.072.299,0.155.196,0.155.268,0.155 c0.083,0 0.145,0.041.145 0.103,0 0.052,0.062.103,0.145.103 s0.217,0.093.299,0.206.361,0.248.671,0.32 c0.299,0.062.537,0.155.537,0.206 s-0.072,0.268 -0.165,0.485 c-0.083,0.206 -0.217,0.857 -0.299,1.424 -0.083,0.609 -0.227,1.218 -0.351,1.466 -0.258,0.516 -0.268,0.609 -0.052,1.27 0.186.547,0.413.702,0.299.196,-0.093 -0.413,0.083 -0.392,0.341.041,0.175.289,0.279.351,0.63.392,0.661.062,0.733 -0.062,0.289 -0.475 s-0.588,-0.743 -0.588,-1.29 c0,-0.382 0.341,-1.528 0.495,-1.682 0.052,-0.052 0.382.361,0.743.908,0.485.723,0.723 1.208,0.898 1.827,0.258.919,0.516 1.239,0.95 1.187,0.237 -0.031,0.268 -0.072,0.237 -0.372,-0.021 -0.289,0.01 -0.33,0.217 -0.33,0.134 0 0.33,-0.072 0.444,-0.155 0.196,-0.155 0.196,-0.155 -0.01,-0.32 -0.196,-0.145 -0.196,-0.165 -0.021,-0.258 0.093,-0.062 0.175,-0.165 0.175,-0.237 s0.093,-0.217 0.206,-0.32 0.289,-0.434 0.382,-0.743 c0.093,-0.299 0.206,-0.547 0.248,-0.547 0.083,0 0.403,1.239 0.403,1.621 0.01.155,0.072.516,0.145.805,0.114.434,0.175.516,0.403.547,0.165.021,0.351 -0.052,0.475 -0.175 s0.31,-0.217 0.413,-0.217 c0.134,0 0.217,-0.083 0.237,-0.227 0.041,-0.33 -0.103,-1.259 -0.33,-2.044 l-0.258,-1.032 -0.268,-1.043 -0.196,-0.692 0.299,-0.754 c0.495,-1.259 0.733,-2.384 0.826,-3.922 0.083,-1.414 0.083,-1.424 0.403,-1.724 0.392,-0.372 0.795,-1.59 0.795,-2.395 -0.01,-0.485 -0.072,-0.692 -0.454,-1.342 -0.516,-0.888 -0.661,-1.652 -0.392,-2.075 0.114,-0.175 0.134,-0.413 0.103,-0.846 -0.052,-0.495 -0.103,-0.63 -0.361,-0.846 -0.423,-0.351 -0.754,-0.33 -1.177,0.093 -0.299,0.299 -0.351,0.423 -0.351,0.826 0 0.268,0.072.65,0.155.857,0.083.196,0.155.454,0.155.557,0 0.268,-0.392 0.495,-0.991 0.568 a3.59,3.59 0 0 0 -1.043,0.361 c-0.299,0.165 -0.65,0.299 -0.795,0.299 a0.56,0.56 0 0 0 -0.372,0.155 c-0.072,0.083 -0.258,0.155 -0.413,0.155 -0.165,0 -0.588,0.093 -0.939,0.206 -0.898,0.279 -0.97,0.196 -0.661,-0.754 0.382,-1.146 0.506,-2.085 0.434,-3.427 -0.062,-1.239 0,-1.641 0.31,-2.106 0.237,-0.351 0.279,-0.774 0.072,-0.692 -0.072,0.031 -0.145,0.01 -0.145,-0.041 s0.083,-0.114 0.186,-0.134 c0.114,-0.031 0.083,-0.052 -0.093,-0.062 -0.155,0 -0.33,0.062 -0.403,0.145 z m3.159,8.536 c-0.103,0.991 -0.268,1.466 -0.526,1.507 -0.114,0.021 -0.506,-0.155 -0.857,-0.392 l-1.156,-0.671 c-0.289,-0.145 -0.516,-0.299 -0.516,-0.351 0,-0.145 0.289,-0.217 0.537,-0.124 0.124.041,0.372.041,0.547 0 0.568,-0.145 1.538,-0.506 1.641,-0.609 a0.38,0.38 0 0 1 0.248,-0.103 c0.124,0 0.134,0.134.083,0.743 z m-2.673,1.641 c0.155,0.062.557,0.155.898,0.196.372,0.062.692,0.175.826,0.299.124,0.124.289,0.217.361,0.217.093,0 0.114,0.083.083,0.227 -0.341,1.455 -0.341,1.239 0.124,3.128 0.506,2.002 0.516,2.508 0.062,3.107 -0.155,0.196 -0.382,0.599 -0.506,0.898 -0.134,0.299 -0.413,0.743 -0.619,0.991 -0.206,0.237 -0.372,0.485 -0.372,0.547 0 0.279,-0.196 -0.093,-0.351 -0.661,-0.103 -0.361,-0.351 -1.012,-0.557 -1.455,-0.33 -0.733,-0.361 -0.836,-0.248 -1.146,0.072 -0.186,0.103 -0.423,0.062 -0.516,-0.062 -0.155,0.041 -0.206,0.33 -0.175,0.093.01,0.279 -0.299,0.681 -1.197,0.062 -0.114,0.083 -0.268,0.041 -0.32,-0.031 -0.062,-0.021 -0.134,0.041 -0.175,0.175 -0.114,0.114 -0.248,-0.196 -0.413,-0.175 -0.083,-0.557 -0.516,-0.857 -0.95,-0.475 -0.702,-0.537 -0.877,-0.557 -1.373 a6.92,6.92 0 0 1 0.031,-0.96 c0.052,-0.423 0.196,-0.475 0.723,-0.268 z"/>
</svg>